<?xml version="1.0" encoding="UTF-8" standalone="no"?><!DOCTYPE svg PUBLIC "-//W3C//DTD SVG 1.1//EN" "http://www.w3.org/Graphics/SVG/1.1/DTD/svg11.dtd"><svg width="100%" height="100%" viewBox="0 0 995 268" version="1.1" xmlns="http://www.w3.org/2000/svg" xmlns:xlink="http://www.w3.org/1999/xlink" xml:space="preserve" xmlns:serif="http://www.serif.com/" style="fill-rule:evenodd;clip-rule:evenodd;stroke-linecap:round;stroke-linejoin:round;stroke-miterlimit:1.5;"><g><path d="M976.43,234.579l0.169,0.002l0.288,0.007l0.298,0.012l0.316,0.019l0.328,0.026l0.331,0.033l0.354,0.043l0.375,0.055l0.383,0.065l0.412,0.081l0.429,0.097l0.438,0.113l0.469,0.136l0.488,0.159l0.513,0.188l0.547,0.225l0.562,0.258l0.552,0.284l0.604,0.342l0.635,0.407l0.605,0.432l0.614,0.488l0.644,0.575l0.617,0.625l0.584,0.665l0.557,0.725l0.53,0.788l0.485,0.842l0.419,0.852l0.363,0.883l0.307,0.915l0.229,0.878l0.175,0.883l0.115,0.881l0.059,0.815l0.014,0.854l-0.037,0.777l-0.064,0.699l-0.098,0.675l-0.124,0.652l-0.149,0.621l-0.155,0.549l-0.172,0.53l-0.184,0.505l-0.198,0.483l-0.23,0.514l-0.33,0.658l-0.4,0.698l-0.393,0.61l-0.369,0.522l-0.373,0.485l-0.371,0.444l-0.357,0.4l-0.346,0.361l-0.347,0.342l-0.351,0.324l-0.339,0.297l-0.345,0.286l-0.347,0.272l-0.358,0.264l-0.365,0.255l-0.372,0.245l-0.386,0.239l-0.398,0.231l-0.429,0.233l-0.467,0.234l-0.486,0.224l-0.541,0.226l-0.59,0.22l-0.64,0.208l-0.732,0.2l-0.819,0.177l-0.809,0.126l-0.625,0.064l-0.55,0.037l-0.591,0.016l-0.617,-0.008l-0.678,-0.04l-0.729,-0.079l-0.761,-0.123l-0.79,-0.173l-0.821,-0.23l-0.869,-0.302l-0.929,-0.394l-0.91,-0.47l-0.88,-0.534l-0.894,-0.64l-0.825,-0.694l-0.784,-0.765l-0.771,-0.885l-0.656,-0.893l-0.539,-0.857l-0.5,-0.935l-0.401,-0.916l-0.322,-0.878l-0.255,-0.882l-0.177,-0.78l-0.133,-0.773l-0.083,-0.716l-0.049,-0.698l-0.008,-0.393l-0.001,-0.095l-0.001,-0.095l0,-0.095l0.001,-0.095l0.001,-0.095l0.002,-0.095l0.002,-0.095l0.003,-0.095l0.004,-0.095l0.004,-0.095l0.005,-0.095l0.006,-0.095l0.006,-0.094l0.007,-0.095l0.008,-0.095l0.008,-0.095l0.009,-0.094l0.009,-0.095l0.011,-0.094l0.01,-0.094l0.012,-0.095l0.012,-0.094l0.013,-0.094l0.013,-0.094l0.014,-0.094l0.015,-0.094l0.015,-0.094l0.016,-0.093l0.016,-0.094l0.017,-0.093l0.018,-0.094l0.019,-0.093l0.019,-0.093l0.019,-0.093l0.021,-0.093l0.021,-0.092l0.021,-0.093l0.023,-0.092l0.022,-0.092l0.024,-0.092l0.024,-0.092l0.025,-0.092l0.025,-0.092l0.026,-0.091l0.027,-0.091l0.027,-0.091l0.028,-0.091l0.028,-0.091l0.029,-0.09l0.03,-0.09l0.03,-0.09l0.031,-0.09l0.031,-0.09l0.032,-0.089l0.033,-0.089l0.033,-0.089l0.034,-0.089l0.035,-0.089l0.035,-0.088l0.036,-0.088l0.036,-0.088l0.037,-0.087l0.037,-0.088l0.038,-0.087l0.039,-0.086l0.039,-0.087l0.04,-0.086l0.041,-0.086l0.041,-0.086l0.041,-0.085l0.042,-0.085l0.043,-0.085l0.044,-0.085l0.043,-0.084l0.045,-0.084l0.045,-0.083l0.046,-0.084l0.046,-0.083l0.046,-0.083l0.048,-0.082l0.048,-0.082l0.048,-0.082l0.049,-0.081l0.049,-0.081l0.05,-0.081l0.049,-0.077l0.018,-0.036l0.043,-0.085l0.044,-0.085l0.044,-0.084l0.044,-0.084l0.046,-0.083l0.045,-0.083l0.047,-0.083l0.047,-0.083l0.047,-0.082l0.048,-0.082l0.049,-0.082l0.049,-0.081l0.05,-0.081l0.05,-0.08l0.051,-0.081l0.051,-0.08l0.052,-0.079l0.053,-0.079l0.053,-0.079l0.053,-0.079l0.054,-0.078l0.055,-0.078l0.055,-0.077l0.055,-0.077l0.057,-0.077l0.056,-0.076l0.057,-0.076l0.058,-0.075l0.058,-0.075l0.059,-0.075l0.059,-0.074l0.06,-0.074l0.06,-0.074l0.061,-0.073l0.061,-0.072l0.062,-0.073l0.062,-0.071l0.063,-0.072l0.063,-0.071l0.063,-0.07l0.064,-0.07l0.065,-0.07l0.065,-0.069l0.066,-0.069l0.066,-0.068l0.066,-0.068l0.067,-0.068l0.067,-0.067l0.068,-0.066l0.068,-0.066l0.069,-0.066l0.069,-0.065l0.07,-0.065l0.07,-0.064l0.07,-0.063l0.071,-0.064l0.072,-0.062l0.071,-0.063l0.073,-0.061l0.072,-0.062l0.073,-0.06l0.074,-0.061l0.073,-0.06l0.075,-0.059l0.074,-0.059l0.075,-0.058l0.076,-0.058l0.075,-0.057l0.077,-0.057l0.076,-0.056l0.077,-0.055l0.078,-0.056l0.077,-0.054l0.078,-0.054l0.079,-0.054l0.079,-0.053l0.079,-0.053l0.079,-0.052l0.08,-0.051l0.08,-0.051l0.081,-0.05l0.081,-0.05l0.081,-0.049l0.082,-0.049l0.081,-0.048l0.083,-0.048l0.082,-0.047l0.083,-0.046l0.083,-0.046l0.084,-0.045l0.083,-0.045l0.085,-0.044l0.084,-0.044l0.085,-0.043l0.085,-0.043l0.085,-0.041l0.085,-0.042l0.086,-0.04l0.086,-0.041l0.087,-0.039l0.086,-0.039l0.087,-0.039l0.087,-0.037l0.088,-0.038l0.087,-0.036l0.088,-0.036l0.088,-0.036l0.089,-0.034l0.088,-0.035l0.089,-0.033l0.089,-0.033l0.09,-0.033l0.089,-0.032l0.09,-0.031l0.09,-0.03l0.09,-0.03l0.09,-0.03l0.091,-0.028l0.091,-0.029l0.09,-0.027l0.092,-0.027l0.091,-0.026l0.091,-0.026l0.092,-0.025l0.092,-0.024l0.092,-0.024l0.092,-0.023l0.092,-0.023l0.093,-0.022l0.092,-0.021l0.093,-0.021l0.093,-0.02l0.093,-0.019l0.093,-0.019l0.093,-0.018l0.093,-0.018l0.094,-0.017l0.093,-0.016l0.094,-0.015l0.094,-0.015l0.094,-0.015l0.094,-0.013l0.094,-0.014l0.094,-0.012l0.094,-0.012l0.095,-0.011l0.094,-0.01l0.095,-0.01l0.094,-0.009l0.095,-0.009l0.094,-0.008l0.095,-0.007l0.095,-0.007l0.095,-0.006l0.095,-0.005l0.094,-0.005l0.095,-0.004l0.095,-0.003l0.095,-0.003l0.095,-0.002l0.095,-0.002l0.095,-0.001l0.095,0l0.095,0Zm-0.282,27.999l0.058,0.001l-0.073,-0.001l0.015,0Zm13.451,-13.49l0.005,0.094l0.004,0.095l0.003,0.095l0.003,0.095l0.002,0.095l-0.007,-0.341l-0.014,-0.201l0.004,0.068Zm-0.033,-0.474l0.002,0.022l-0.005,-0.063l-0.004,-0.041l0.007,0.082Z" style="fill:#000;"/><path d="M668.934,124.794l-0.657,107.145c15.019,-41.388 45.669,-76.57 94.342,-104.599" style="fill:none;stroke:#000;stroke-width:27px;"/><path d="M373.94,28.498l32.939,116.053" style="fill:none;stroke:#000;stroke-width:27px;"/><path d="M133.496,64.983c37.184,49.424 56.645,101.047 59.476,140.344l-22.192,-187.502c-1.77,2.424 74.882,108.14 76.976,123.228c2.606,18.774 -55.635,8.488 -54.131,8.617c30.128,18.433 53.306,37.159 72.542,56.052" style="fill:none;stroke:#000;stroke-width:25px;"/><path d="M256.523,59.165l41.42,168.431c0,0 66.093,-47.893 70.638,-53.807c10.227,-13.308 -69.121,-12.661 -78.533,-12.388c3.794,-0.188 58.459,-28.323 58.65,-41.597c0.263,-18.357 -91.83,-85.549 -98.44,-87.798" style="fill:none;stroke:#000;stroke-width:27px;"/><g><path d="M14.678,39.564l0.783,0.06l0.779,0.104l0.771,0.147l0.762,0.19l0.75,0.233l0.736,0.275l0.719,0.315l0.701,0.355l0.679,0.394l0.656,0.431l0.631,0.468l0.604,0.502l0.575,0.535l0.544,0.566l0.139,0.163l0.045,0.029l0.127,0.079l0.14,0.085l0.153,0.092l0.162,0.096l0.173,0.101l0.185,0.106l0.195,0.11l0.204,0.114l0.214,0.117l0.224,0.122l0.233,0.124l0.241,0.128l0.251,0.131l0.259,0.135l0.267,0.137l0.275,0.14l0.283,0.142l0.291,0.145l0.299,0.147l0.306,0.15l0.313,0.152l0.32,0.154l0.328,0.156l0.335,0.158l0.34,0.16l0.348,0.162l0.355,0.164l0.36,0.166l0.367,0.168l0.373,0.169l0.38,0.171l0.385,0.172l0.39,0.174l0.397,0.176l0.403,0.177l0.408,0.178l0.413,0.18l0.419,0.181l0.424,0.182l0.429,0.184l0.435,0.185l0.439,0.186l0.444,0.187l0.449,0.189l0.454,0.19l0.459,0.19l0.462,0.192l0.468,0.193l0.473,0.194l0.476,0.194l0.48,0.196l0.481,0.195l0.987,0.397l0.998,0.399l1.013,0.402l1.028,0.405l1.042,0.408l1.055,0.41l1.069,0.412l1.081,0.415l1.092,0.416l1.104,0.418l1.114,0.42l1.125,0.421l1.134,0.422l1.143,0.423l1.151,0.424l1.16,0.425l1.166,0.425l1.174,0.425l1.18,0.426l1.185,0.425l1.191,0.425l1.195,0.425l1.2,0.424l1.203,0.424l1.206,0.422l1.209,0.421l1.21,0.421l1.213,0.418l1.213,0.417l1.213,0.416l1.213,0.413l1.213,0.411l1.211,0.409l1.21,0.407l1.208,0.404l1.204,0.401l1.202,0.398l1.197,0.395l1.193,0.392l1.188,0.388l1.183,0.385l1.177,0.38l1.17,0.377l1.163,0.373l1.156,0.369l1.147,0.364l1.139,0.359l1.129,0.355l1.12,0.349l1.11,0.345l1.098,0.339l1.087,0.334l1.076,0.328l1.062,0.322l1.05,0.316l1.036,0.31l1.021,0.304l1.007,0.297l0.991,0.29l0.976,0.284l0.959,0.276l0.941,0.269l0.924,0.262l0.905,0.254l0.886,0.246l0.867,0.238l0.845,0.23l0.825,0.222l0.803,0.213l0.785,0.206l0.376,0.097l0.375,0.097l0.368,0.094l0.364,0.092l0.356,0.089l0.35,0.087l0.344,0.085l0.337,0.082l0.329,0.08l0.323,0.077l0.316,0.075l0.308,0.072l0.302,0.069l0.293,0.067l0.285,0.064l0.279,0.062l0.269,0.059l0.26,0.056l0.254,0.053l0.243,0.051l0.234,0.047l0.225,0.045l0.215,0.042l0.204,0.038l0.193,0.036l0.184,0.033l0.172,0.03l0.159,0.026l0.146,0.024l0.133,0.02l0.12,0.018l0.103,0.014l0.087,0.012l0.071,0.008l0.051,0.006l0.016,0.002l0.573,0.022l0.782,0.074l0.776,0.118l0.769,0.161l0.758,0.204l0.746,0.246l0.731,0.288l0.713,0.328l0.694,0.368l0.672,0.406l0.648,0.443l0.623,0.479l0.595,0.513l0.565,0.545l0.533,0.576l0.501,0.605l0.465,0.633l0.43,0.657l0.392,0.681l0.353,0.701l0.313,0.72l0.272,0.737l0.231,0.751l0.188,0.762l0.145,0.772l0.102,0.778l0.058,0.784l0.014,0.785l-0.03,0.784l-0.075,0.782l-0.117,0.777l-0.162,0.768l-0.204,0.758l-0.246,0.746l-0.288,0.731l-0.328,0.713l-0.368,0.694l-0.406,0.672l-0.443,0.649l-0.478,0.622l-0.513,0.595l-0.546,0.565l-0.576,0.533l-0.605,0.501l-0.632,0.465l-0.658,0.43l-0.68,0.392l-0.702,0.353l-0.72,0.313l-0.737,0.273l-0.75,0.23l-0.763,0.189l-0.771,0.145l-0.779,0.101l-0.783,0.058l-0.785,0.014l-0.277,-0.003l-0.402,-0.012l-0.384,-0.018l-0.37,-0.023l-0.356,-0.027l-0.346,-0.031l-0.34,-0.035l-0.335,-0.037l-0.328,-0.04l-0.328,-0.043l-0.326,-0.045l-0.323,-0.048l-0.324,-0.05l-0.326,-0.052l-0.325,-0.055l-0.327,-0.056l-0.329,-0.059l-0.333,-0.062l-0.335,-0.063l-0.337,-0.066l-0.341,-0.068l-0.345,-0.069l-0.347,-0.072l-0.351,-0.074l-0.356,-0.077l-0.361,-0.079l-0.362,-0.08l-0.368,-0.083l-0.373,-0.085l-0.375,-0.086l-0.382,-0.089l-0.385,-0.092l-0.389,-0.093l-0.395,-0.095l-0.399,-0.097l-0.401,-0.099l-0.409,-0.102l-0.411,-0.103l-0.416,-0.106l-0.422,-0.107l-0.425,-0.109l-0.435,-0.113l-0.867,-0.227l-0.89,-0.236l-0.907,-0.244l-0.924,-0.252l-0.94,-0.258l-0.957,-0.266l-0.973,-0.273l-0.988,-0.28l-1.003,-0.287l-1.018,-0.294l-1.033,-0.3l-1.046,-0.306l-1.06,-0.313l-1.073,-0.319l-1.086,-0.325l-1.098,-0.33l-1.109,-0.337l-1.121,-0.342l-1.132,-0.347l-1.143,-0.353l-1.152,-0.357l-1.161,-0.363l-1.171,-0.368l-1.179,-0.372l-1.187,-0.377l-1.195,-0.381l-1.202,-0.385l-1.209,-0.389l-1.214,-0.393l-1.221,-0.397l-1.225,-0.401l-1.23,-0.404l-1.235,-0.407l-1.238,-0.41l-1.241,-0.414l-1.244,-0.416l-1.247,-0.418l-1.248,-0.422l-1.25,-0.424l-1.25,-0.426l-1.251,-0.428l-1.25,-0.43l-1.25,-0.431l-1.248,-0.433l-1.247,-0.435l-1.246,-0.436l-1.242,-0.438l-1.239,-0.438l-1.236,-0.439l-1.232,-0.44l-1.227,-0.44l-1.222,-0.441l-1.217,-0.441l-1.21,-0.441l-1.205,-0.441l-1.197,-0.441l-1.19,-0.44l-1.183,-0.44l-1.173,-0.44l-1.166,-0.439l-1.156,-0.438l-1.146,-0.437l-1.136,-0.435l-1.126,-0.435l-1.114,-0.433l-1.103,-0.431l-1.091,-0.43l-1.079,-0.428l-1.066,-0.427l-1.049,-0.422l-0.525,-0.213l-0.518,-0.211l-0.515,-0.21l-0.511,-0.21l-0.507,-0.209l-0.504,-0.208l-0.5,-0.208l-0.496,-0.208l-0.492,-0.206l-0.489,-0.206l-0.485,-0.206l-0.481,-0.205l-0.477,-0.204l-0.473,-0.203l-0.469,-0.203l-0.465,-0.202l-0.461,-0.202l-0.456,-0.201l-0.453,-0.2l-0.449,-0.2l-0.444,-0.198l-0.44,-0.199l-0.436,-0.197l-0.431,-0.197l-0.427,-0.197l-0.423,-0.195l-0.419,-0.195l-0.414,-0.195l-0.41,-0.194l-0.406,-0.193l-0.401,-0.194l-0.397,-0.192l-0.393,-0.192l-0.389,-0.192l-0.384,-0.191l-0.38,-0.191l-0.376,-0.191l-0.371,-0.191l-0.368,-0.19l-0.364,-0.191l-0.36,-0.191l-0.356,-0.191l-0.353,-0.191l-0.348,-0.192l-0.346,-0.192l-0.342,-0.193l-0.338,-0.194l-0.337,-0.196l-0.334,-0.197l-0.33,-0.199l-0.328,-0.2l-0.328,-0.204l-0.326,-0.207l-0.324,-0.21l-0.323,-0.214l-0.323,-0.218l-0.324,-0.225l-0.325,-0.231l-0.306,-0.223l-0.182,-0.135l-0.166,-0.126l-0.166,-0.128l-0.167,-0.13l-0.166,-0.132l-0.167,-0.135l-0.171,-0.14l-0.172,-0.144l-0.173,-0.148l-0.172,-0.15l-0.175,-0.156l-0.18,-0.163l-0.181,-0.168l-0.182,-0.173l-0.186,-0.181l-0.186,-0.186l-0.189,-0.195l-0.192,-0.203l-0.196,-0.213l-0.199,-0.224l-0.201,-0.233l-0.206,-0.248l-0.206,-0.258l-0.211,-0.275l-0.213,-0.289l-0.215,-0.305l-0.218,-0.326l-0.219,-0.345l-0.222,-0.371l-0.122,-0.216l-0.366,-0.695l-0.326,-0.715l-0.286,-0.731l-0.244,-0.746l-0.202,-0.759l-0.159,-0.769l-0.116,-0.777l-0.072,-0.782l-0.028,-0.785l0.016,-0.785l0.061,-0.783l0.103,-0.778l0.148,-0.772l0.19,-0.762l0.233,-0.75l0.274,-0.735l0.316,-0.72l0.355,-0.7l0.393,-0.679l0.432,-0.657l0.467,-0.631l0.502,-0.604l0.535,-0.574l0.567,-0.544l0.596,-0.511l0.624,-0.477l0.649,-0.442l0.674,-0.404l0.695,-0.365l0.714,-0.327l0.732,-0.285l0.746,-0.244l0.759,-0.202l0.769,-0.159l0.777,-0.116l0.782,-0.072l0.784,-0.028l0.785,0.016Zm112.712,40.496l-0.009,-0.001l-0.072,-0.003l-0.097,-0.003l0.178,0.007Zm-101.189,-33.378l-0.067,-0.119l-0.162,-0.271l-0.085,-0.133l0.314,0.523Z" style="fill:#000;"/><path d="M62.265,60.325l0.951,0.099l0.942,0.163l0.928,0.227l0.911,0.29l0.889,0.352l0.863,0.411l0.833,0.469l0.799,0.525l0.761,0.578l0.72,0.629l0.675,0.677l0.628,0.721l0.577,0.762l0.523,0.8l0.468,0.834l0.41,0.863l0.35,0.89l0.288,0.911l0.226,0.929l0.161,0.942l0.097,0.951l0.032,0.956l-0.033,0.955l-0.099,0.951l-0.07,0.403l0.001,0.032l0.003,0.112l0.003,0.125l0.005,0.136l0.005,0.146l0.007,0.154l0.008,0.164l0.009,0.173l0.011,0.181l0.011,0.191l0.013,0.198l0.014,0.205l0.015,0.212l0.016,0.221l0.017,0.219l0.039,0.484l0.043,0.501l0.048,0.527l0.052,0.55l0.057,0.573l0.061,0.594l0.066,0.616l0.07,0.636l0.073,0.655l0.078,0.674l0.082,0.692l0.085,0.709l0.089,0.726l0.093,0.743l0.096,0.758l0.1,0.772l0.103,0.787l0.106,0.802l0.109,0.814l0.113,0.827l0.115,0.839l0.118,0.852l0.121,0.862l0.124,0.873l0.126,0.883l0.128,0.894l0.131,0.902l0.134,0.911l0.135,0.919l0.138,0.927l0.139,0.934l0.142,0.941l0.143,0.948l0.145,0.954l0.147,0.959l0.148,0.963l0.15,0.966l0.304,1.951l0.308,1.961l0.312,1.969l0.316,1.974l0.318,1.976l0.32,1.973l0.322,1.967l0.321,1.957l0.322,1.944l0.32,1.928l0.319,1.906l0.317,1.883l0.313,1.855l0.309,1.823l0.305,1.789l0.3,1.75l0.293,1.707l0.287,1.662l0.279,1.612l0.272,1.559l0.262,1.503l0.253,1.442l0.242,1.378l0.232,1.311l0.219,1.239l0.208,1.164l0.194,1.086l0.18,1.004l0.165,0.916l0.149,0.826l0.134,0.732l0.116,0.632l0.097,0.525l0.077,0.41l0.034,0.181l0.056,0.22l0.144,0.579l0.141,0.577l0.139,0.576l0.136,0.575l0.133,0.574l0.13,0.572l0.129,0.572l0.125,0.571l0.123,0.568l0.12,0.569l0.118,0.567l0.115,0.566l0.112,0.564l0.11,0.564l0.107,0.562l0.105,0.561l0.103,0.56l0.1,0.558l0.098,0.558l0.095,0.556l0.093,0.555l0.09,0.553l0.088,0.553l0.086,0.55l0.083,0.55l0.081,0.549l0.079,0.546l0.077,0.546l0.074,0.544l0.072,0.543l0.07,0.542l0.067,0.54l0.065,0.539l0.063,0.537l0.061,0.535l0.059,0.536l0.057,0.533l0.055,0.531l0.052,0.53l0.05,0.529l0.049,0.528l0.046,0.526l0.044,0.523l0.043,0.524l0.04,0.521l0.038,0.519l0.036,0.518l0.035,0.517l0.032,0.516l0.031,0.514l0.028,0.511l0.027,0.51l0.025,0.509l0.023,0.508l0.021,0.505l0.02,0.503l0.017,0.503l0.016,0.501l0.014,0.499l0.013,0.497l0.01,0.496l0.009,0.495l0.007,0.491l0.006,0.491l0.004,0.489l0.002,0.487l0.001,0.486l-0.001,0.484l-0.003,0.482l-0.004,0.48l-0.006,0.479l-0.007,0.476l-0.008,0.475l-0.011,0.474l-0.011,0.471l-0.014,0.469l-0.014,0.469l-0.016,0.466l-0.018,0.463l-0.019,0.463l-0.02,0.46l-0.021,0.459l-0.023,0.458l-0.025,0.454l-0.025,0.453l-0.027,0.451l-0.028,0.449l-0.03,0.447l-0.031,0.446l-0.032,0.444l-0.033,0.441l-0.034,0.439l-0.036,0.439l-0.036,0.435l-0.038,0.433l-0.039,0.432l-0.04,0.43l-0.041,0.428l-0.043,0.425l-0.043,0.424l-0.044,0.422l-0.046,0.419l-0.046,0.417l-0.047,0.417l-0.049,0.414l-0.049,0.411l-0.05,0.409l-0.052,0.407l-0.052,0.406l-0.053,0.404l-0.054,0.399l-0.054,0.399l-0.056,0.398l-0.056,0.395l-0.058,0.393l-0.058,0.389l-0.058,0.388l-0.06,0.387l-0.06,0.384l-0.061,0.381l-0.062,0.38l-0.063,0.378l-0.063,0.375l-0.064,0.373l-0.064,0.369l-0.065,0.369l-0.066,0.368l-0.066,0.363l-0.067,0.362l-0.067,0.361l-0.068,0.356l-0.069,0.355l-0.069,0.352l-0.069,0.351l-0.07,0.349l-0.071,0.345l-0.071,0.345l-0.071,0.341l-0.072,0.338l-0.072,0.336l-0.073,0.335l-0.073,0.333l-0.073,0.33l-0.073,0.325l-0.076,0.333l-0.147,0.635l-0.15,0.633l-0.151,0.623l-0.151,0.614l-0.153,0.604l-0.153,0.594l-0.153,0.585l-0.154,0.573l-0.154,0.565l-0.154,0.555l-0.154,0.544l-0.154,0.533l-0.153,0.524l-0.153,0.514l-0.153,0.504l-0.152,0.493l-0.151,0.483l-0.15,0.472l-0.149,0.462l-0.149,0.452l-0.146,0.44l-0.146,0.43l-0.144,0.42l-0.143,0.41l-0.14,0.398l-0.139,0.388l-0.138,0.378l-0.134,0.366l-0.134,0.356l-0.131,0.346l-0.128,0.334l-0.127,0.326l-0.125,0.314l-0.122,0.304l-0.119,0.294l-0.118,0.285l-0.116,0.276l-0.113,0.265l-0.111,0.257l-0.109,0.249l-0.108,0.241l-0.108,0.237l-0.11,0.237l-0.109,0.232l-0.112,0.229l-0.12,0.243l-0.133,0.259l-0.153,0.286l-0.195,0.351l-0.272,0.458l-0.37,0.57l-0.427,0.589l-0.609,0.757l-0.421,0.441l-0.458,0.457l-0.479,0.436l-0.498,0.413l-0.006,0.005l-0.698,0.517l-0.729,0.473l-0.756,0.427l-0.782,0.38l-0.803,0.33l-0.005,0.002l-0.893,0.301l-0.911,0.24l-0.926,0.178l-0.935,0.116l-0.94,0.053l-0.943,-0.011l-0.939,-0.074l-0.002,0l-0.848,-0.123l-0.84,-0.173l-0.827,-0.225l-0.811,-0.275l-0.794,-0.325l-0.772,-0.372l-0.748,-0.419l-0.721,-0.463l-0.001,-0.001l-0.716,-0.527l-0.681,-0.57l-0.643,-0.613l-0.604,-0.652l-0.56,-0.69l-0.516,-0.723l-0.469,-0.755l-0.42,-0.783l-0.002,-0.004l-0.358,-0.779l-0.309,-0.8l-0.259,-0.816l-0.209,-0.832l-0.158,-0.842l-0.106,-0.851l-0.001,-0.007l-0.056,-0.954l0.008,-0.956l0.074,-0.953l0.139,-0.946l0.203,-0.934l0.266,-0.919l0.329,-0.897l0.389,-0.874l0.447,-0.844l0.011,-0.017l0.001,-0.004l0.053,-0.124l0.057,-0.136l0.062,-0.15l0.066,-0.164l0.071,-0.175l0.074,-0.188l0.078,-0.2l0.082,-0.213l0.085,-0.223l0.087,-0.235l0.092,-0.247l0.093,-0.256l0.096,-0.269l0.099,-0.28l0.1,-0.288l0.103,-0.3l0.106,-0.311l0.107,-0.321l0.108,-0.331l0.11,-0.341l0.112,-0.351l0.113,-0.361l0.114,-0.37l0.115,-0.381l0.116,-0.39l0.117,-0.399l0.118,-0.41l0.119,-0.418l0.118,-0.427l0.119,-0.437l0.12,-0.446l0.119,-0.455l0.12,-0.463l0.119,-0.472l0.119,-0.482l0.118,-0.489l0.118,-0.499l0.119,-0.515l0.057,-0.248l0.059,-0.261l0.058,-0.26l0.057,-0.262l0.057,-0.264l0.058,-0.268l0.057,-0.27l0.057,-0.271l0.056,-0.273l0.056,-0.275l0.056,-0.277l0.055,-0.279l0.055,-0.282l0.055,-0.283l0.054,-0.286l0.054,-0.286l0.053,-0.289l0.054,-0.293l0.052,-0.29l0.052,-0.295l0.052,-0.299l0.051,-0.298l0.05,-0.301l0.05,-0.302l0.05,-0.303l0.049,-0.308l0.048,-0.308l0.048,-0.31l0.047,-0.312l0.047,-0.314l0.046,-0.315l0.045,-0.317l0.045,-0.318l0.044,-0.321l0.043,-0.324l0.043,-0.324l0.042,-0.326l0.041,-0.329l0.041,-0.329l0.04,-0.332l0.039,-0.333l0.038,-0.334l0.037,-0.337l0.037,-0.34l0.036,-0.339l0.034,-0.341l0.034,-0.344l0.034,-0.346l0.032,-0.346l0.031,-0.349l0.031,-0.35l0.03,-0.352l0.028,-0.353l0.028,-0.355l0.027,-0.357l0.026,-0.358l0.024,-0.359l0.024,-0.361l0.023,-0.364l0.022,-0.364l0.02,-0.366l0.02,-0.369l0.019,-0.368l0.017,-0.371l0.017,-0.372l0.015,-0.373l0.014,-0.377l0.013,-0.376l0.012,-0.378l0.01,-0.38l0.01,-0.381l0.008,-0.382l0.007,-0.384l0.006,-0.386l0.005,-0.387l0.003,-0.389l0.002,-0.39l0.001,-0.391l-0.001,-0.392l-0.002,-0.395l-0.003,-0.395l-0.004,-0.397l-0.006,-0.399l-0.007,-0.399l-0.009,-0.401l-0.01,-0.402l-0.011,-0.404l-0.013,-0.405l-0.014,-0.406l-0.016,-0.408l-0.017,-0.41l-0.019,-0.409l-0.02,-0.411l-0.022,-0.414l-0.023,-0.415l-0.025,-0.415l-0.026,-0.416l-0.028,-0.418l-0.029,-0.419l-0.031,-0.421l-0.033,-0.422l-0.034,-0.422l-0.036,-0.425l-0.037,-0.425l-0.039,-0.426l-0.041,-0.428l-0.042,-0.429l-0.045,-0.431l-0.045,-0.431l-0.048,-0.432l-0.049,-0.433l-0.051,-0.436l-0.053,-0.436l-0.055,-0.437l-0.056,-0.438l-0.058,-0.439l-0.061,-0.441l-0.061,-0.442l-0.064,-0.443l-0.066,-0.443l-0.067,-0.445l-0.07,-0.446l-0.071,-0.447l-0.073,-0.449l-0.075,-0.449l-0.078,-0.45l-0.079,-0.451l-0.081,-0.453l-0.083,-0.454l-0.085,-0.454l-0.087,-0.455l-0.089,-0.457l-0.091,-0.458l-0.093,-0.458l-0.096,-0.459l-0.097,-0.461l-0.1,-0.462l-0.101,-0.462l-0.104,-0.463l-0.106,-0.465l-0.108,-0.466l-0.11,-0.466l-0.113,-0.468l-0.114,-0.468l-0.117,-0.468l-0.167,-0.657l-0.075,-0.332l-0.058,-0.275l-0.069,-0.351l-0.078,-0.41l-0.091,-0.485l-0.107,-0.578l-0.123,-0.669l-0.139,-0.762l-0.154,-0.852l-0.17,-0.94l-0.183,-1.025l-0.198,-1.105l-0.21,-1.183l-0.223,-1.257l-0.235,-1.328l-0.245,-1.396l-0.256,-1.46l-0.266,-1.52l-0.274,-1.577l-0.282,-1.631l-0.29,-1.68l-0.297,-1.726l-0.303,-1.77l-0.308,-1.808l-0.313,-1.845l-0.317,-1.876l-0.32,-1.905l-0.323,-1.931l-0.325,-1.952l-0.326,-1.97l-0.326,-1.984l-0.326,-1.996l-0.325,-2.003l-0.323,-2.007l-0.321,-2.008l-0.318,-2.005l-0.315,-1.999l-0.309,-1.986l-0.153,-0.992l-0.152,-0.986l-0.15,-0.982l-0.149,-0.977l-0.147,-0.972l-0.145,-0.966l-0.144,-0.961l-0.142,-0.955l-0.139,-0.948l-0.138,-0.94l-0.136,-0.934l-0.133,-0.925l-0.131,-0.917l-0.128,-0.908l-0.126,-0.9l-0.124,-0.889l-0.121,-0.88l-0.118,-0.87l-0.115,-0.859l-0.113,-0.847l-0.109,-0.837l-0.106,-0.825l-0.104,-0.813l-0.1,-0.801l-0.096,-0.788l-0.094,-0.775l-0.09,-0.762l-0.086,-0.748l-0.083,-0.735l-0.079,-0.721l-0.075,-0.707l-0.071,-0.694l-0.067,-0.679l-0.064,-0.665l-0.059,-0.651l-0.055,-0.637l-0.049,-0.615l-0.025,-0.316l-0.022,-0.303l-0.022,-0.302l-0.02,-0.299l-0.019,-0.295l-0.017,-0.292l-0.017,-0.29l-0.015,-0.287l-0.014,-0.286l-0.012,-0.285l-0.011,-0.282l-0.01,-0.28l-0.008,-0.28l-0.007,-0.281l-0.004,-0.28l-0.003,-0.28l-0.001,-0.282l0.001,-0.284l0.004,-0.288l0.006,-0.292l0.009,-0.296l0.013,-0.305l0.017,-0.314l0.021,-0.323l0.028,-0.338l0.034,-0.357l0.043,-0.374l0.054,-0.402l0.068,-0.432l0.086,-0.471l0.098,-0.459l0.08,-0.332l0.077,-0.3l0.088,-0.314l0.101,-0.331l0.117,-0.359l0.072,-0.2l0.351,-0.889l0.411,-0.863l0.47,-0.833l0.525,-0.799l0.578,-0.761l0.629,-0.72l0.676,-0.675l0.722,-0.628l0.762,-0.577l0.8,-0.524l0.833,-0.467l0.864,-0.41l0.889,-0.35l0.912,-0.289l0.929,-0.225l0.942,-0.162l0.951,-0.097l0.955,-0.031l0.956,0.033Zm20.018,174.229l-0.006,-0.022l-0.012,-0.013l0.018,0.035Zm-21.977,-4.18l-0.263,0.275l0.532,-0.487l-0.269,0.212Zm14.179,-151.383l0.047,-0.132l0.094,-0.288l0.078,-0.256l0.028,-0.1l-0.247,0.776Z" style="fill:#000;"/><path d="M156.31,137.321l0.707,0.059l0.703,0.095l0.697,0.13l0.69,0.166l0.68,0.2l0.67,0.235l0.656,0.268l0.643,0.301l0.626,0.333l0.608,0.364l0.59,0.395l0.568,0.424l0.546,0.453l0.523,0.479l0.498,0.505l0.471,0.53l0.444,0.553l0.416,0.575l0.386,0.595l0.355,0.614l0.324,0.632l0.291,0.646l0.258,0.661l0.224,0.673l0.19,0.683l0.155,0.693l0.12,0.699l0.085,0.704l0.048,0.708l0.013,0.709l-0.024,0.709l-0.059,0.707l-0.095,0.703l-0.13,0.697l-0.166,0.689l-0.2,0.681l-0.234,0.669l-0.269,0.657l-0.301,0.642l-0.333,0.627l-0.364,0.608l-0.395,0.589l-0.424,0.569l-0.453,0.546l-0.479,0.523l-0.505,0.498l-0.53,0.471l-0.553,0.444l-0.575,0.416l-0.879,0.601l-0.858,0.591l-0.852,0.589l-0.846,0.588l-0.839,0.586l-0.834,0.585l-0.826,0.583l-0.82,0.581l-0.815,0.58l-0.807,0.578l-0.802,0.577l-0.795,0.575l-0.79,0.573l-0.783,0.572l-0.776,0.57l-0.771,0.568l-0.765,0.567l-0.758,0.565l-0.753,0.564l-0.746,0.562l-0.741,0.56l-0.735,0.558l-0.728,0.557l-0.723,0.555l-0.717,0.553l-0.711,0.551l-0.705,0.55l-0.699,0.548l-0.694,0.547l-0.687,0.544l-0.682,0.543l-0.676,0.541l-0.671,0.539l-0.665,0.538l-0.659,0.535l-0.654,0.534l-0.648,0.533l-0.642,0.53l-0.637,0.528l-0.631,0.527l-0.626,0.525l-0.62,0.523l-0.615,0.521l-0.61,0.519l-0.604,0.518l-0.599,0.515l-0.593,0.514l-0.588,0.512l-0.583,0.51l-0.577,0.508l-0.572,0.506l-0.567,0.504l-0.562,0.503l-0.557,0.5l-0.551,0.499l-0.547,0.496l-0.541,0.495l-0.536,0.493l-0.531,0.49l-0.526,0.489l-0.521,0.487l-0.516,0.485l-0.511,0.483l-0.506,0.48l-0.502,0.479l-0.496,0.477l-0.492,0.475l-0.486,0.473l-0.482,0.471l-0.477,0.469l-0.473,0.466l-0.467,0.465l-0.463,0.463l-0.459,0.46l-0.453,0.459l-0.449,0.456l-0.445,0.455l-0.439,0.452l-0.436,0.45l-0.431,0.449l-0.426,0.446l-0.421,0.443l-0.418,0.442l-0.413,0.44l-0.408,0.437l-0.404,0.436l-0.4,0.434l-0.396,0.431l-0.391,0.429l-0.387,0.427l-0.382,0.424l-0.379,0.423l-0.374,0.42l-0.37,0.418l-0.366,0.416l-0.362,0.414l-0.357,0.412l-0.354,0.409l-0.35,0.408l-0.345,0.405l-0.342,0.402l-0.337,0.401l-0.334,0.398l-0.33,0.396l-0.326,0.394l-0.322,0.392l-0.318,0.389l-0.314,0.387l-0.311,0.385l-0.307,0.383l-0.303,0.38l-0.299,0.378l-0.296,0.375l-0.292,0.374l-0.288,0.371l-0.285,0.369l-0.281,0.367l-0.278,0.364l-0.274,0.362l-0.271,0.359l-0.267,0.358l-0.263,0.354l-0.261,0.354l-0.257,0.35l-0.253,0.348l-0.25,0.345l-0.247,0.343l-0.243,0.341l-0.241,0.339l-0.237,0.336l-0.234,0.334l-0.23,0.332l-0.227,0.328l-0.225,0.327l-0.221,0.325l-0.218,0.322l-0.215,0.319l-0.212,0.317l-0.209,0.315l-0.206,0.312l-0.203,0.31l-0.2,0.308l-0.198,0.305l-0.194,0.303l-0.191,0.3l-0.189,0.298l-0.186,0.296l-0.183,0.293l-0.18,0.291l-0.178,0.288l-0.174,0.286l-0.173,0.283l-0.169,0.282l-0.167,0.278l-0.164,0.276l-0.162,0.274l-0.16,0.272l-0.156,0.268l-0.154,0.267l-0.152,0.264l-0.15,0.261l-0.147,0.26l-0.144,0.257l-0.142,0.254l-0.14,0.251l-0.138,0.25l-0.135,0.248l-0.133,0.244l-0.131,0.243l-0.128,0.239l-0.127,0.238l-0.125,0.236l-0.121,0.231l-0.121,0.231l-0.118,0.228l-0.116,0.225l-0.114,0.223l-0.112,0.221l-0.11,0.218l-0.104,0.208l-0.215,0.434l-0.203,0.415l-0.197,0.406l-0.189,0.398l-0.183,0.388l-0.176,0.379l-0.17,0.37l-0.165,0.362l-0.158,0.353l-0.153,0.344l-0.149,0.337l-0.143,0.329l-0.138,0.321l-0.135,0.315l-0.13,0.307l-0.126,0.296l-0.249,0.594l-0.236,0.568l-0.23,0.549l-0.118,0.28l-0.118,0.279l-0.12,0.281l-0.125,0.288l-0.131,0.297l-0.139,0.307l-0.15,0.322l-0.151,0.316l-0.101,0.205l-0.098,0.193l-0.102,0.197l-0.11,0.208l-0.12,0.22l-0.131,0.232l-0.143,0.246l-0.158,0.261l-0.178,0.282l-0.197,0.3l-0.226,0.327l-0.256,0.35l-0.286,0.37l-0.34,0.411l-0.389,0.438l-0.382,0.396l-0.318,0.309l-0.277,0.257l-0.317,0.281l-0.363,0.303l-0.42,0.33l-0.514,0.371l-0.611,0.4l-0.752,0.437l-0.958,0.475l-0.553,0.219l-0.667,0.246l-0.679,0.211l-0.02,0.005l-0.589,0.154l-0.596,0.127l-0.6,0.102l-0.017,0.003l-0.563,0.071l-0.566,0.048l-0.567,0.025l-0.567,0.002l-0.016,0l-0.682,-0.028l-0.681,-0.061l-0.676,-0.094l-0.007,-0.001l-0.491,-0.089l-0.487,-0.107l-0.483,-0.124l-0.006,-0.002l-0.524,-0.156l-0.518,-0.176l-0.51,-0.197l-0.006,-0.002l-0.516,-0.222l-0.507,-0.243l-0.497,-0.263l-0.005,-0.003l-0.539,-0.315l-0.524,-0.34l-0.509,-0.362l-0.492,-0.384l-0.01,-0.008l-0.483,-0.414l-0.464,-0.435l-0.443,-0.456l-0.423,-0.475l-0.4,-0.495l-0.008,-0.01l-0.408,-0.555l-0.379,-0.574l-0.352,-0.593l-0.321,-0.609l-0.006,-0.012l-0.241,-0.51l-0.22,-0.518l-0.199,-0.528l-0.177,-0.534l-0.005,-0.015l-0.162,-0.566l-0.139,-0.574l-0.114,-0.578l-0.003,-0.016l-0.076,-0.482l-0.059,-0.485l-0.042,-0.486l-0.041,-0.594l0.014,-1.058l0.071,-0.896l0.105,-0.755l0.119,-0.638l0.134,-0.575l0.136,-0.501l0.139,-0.451l0.147,-0.432l0.181,-0.48l0.27,-0.64l0.306,-0.631l0.234,-0.438l0.199,-0.35l0.222,-0.367l0.261,-0.402l0.291,-0.416l0.323,-0.431l0.11,-0.135l0.005,-0.013l0.273,-0.651l0.152,-0.359l0.158,-0.372l0.166,-0.387l0.173,-0.402l0.182,-0.417l0.189,-0.43l0.198,-0.445l0.206,-0.459l0.214,-0.472l0.223,-0.484l0.231,-0.497l0.24,-0.51l0.249,-0.522l0.258,-0.535l0.268,-0.546l0.272,-0.549l0.146,-0.291l0.144,-0.286l0.147,-0.289l0.149,-0.292l0.152,-0.295l0.153,-0.296l0.156,-0.3l0.16,-0.304l0.162,-0.305l0.163,-0.308l0.167,-0.311l0.17,-0.313l0.172,-0.317l0.174,-0.318l0.177,-0.321l0.18,-0.324l0.183,-0.328l0.185,-0.329l0.188,-0.331l0.191,-0.335l0.194,-0.336l0.196,-0.34l0.199,-0.342l0.202,-0.344l0.205,-0.347l0.208,-0.35l0.211,-0.352l0.214,-0.353l0.216,-0.357l0.22,-0.359l0.223,-0.362l0.226,-0.364l0.228,-0.366l0.232,-0.369l0.235,-0.371l0.238,-0.373l0.241,-0.376l0.244,-0.378l0.248,-0.38l0.25,-0.383l0.254,-0.385l0.257,-0.387l0.261,-0.39l0.263,-0.392l0.267,-0.394l0.27,-0.396l0.274,-0.398l0.277,-0.402l0.281,-0.402l0.283,-0.406l0.288,-0.407l0.29,-0.41l0.294,-0.411l0.298,-0.415l0.301,-0.415l0.305,-0.419l0.308,-0.42l0.312,-0.423l0.315,-0.424l0.32,-0.427l0.323,-0.429l0.326,-0.431l0.33,-0.433l0.334,-0.435l0.338,-0.438l0.341,-0.439l0.345,-0.441l0.349,-0.444l0.353,-0.445l0.356,-0.448l0.361,-0.449l0.364,-0.452l0.368,-0.453l0.373,-0.456l0.376,-0.457l0.38,-0.46l0.384,-0.461l0.389,-0.464l0.392,-0.465l0.396,-0.468l0.401,-0.469l0.404,-0.471l0.409,-0.473l0.413,-0.475l0.417,-0.477l0.421,-0.479l0.425,-0.481l0.43,-0.483l0.434,-0.485l0.438,-0.486l0.443,-0.488l0.447,-0.491l0.451,-0.492l0.456,-0.493l0.46,-0.496l0.465,-0.498l0.469,-0.499l0.473,-0.501l0.478,-0.503l0.482,-0.505l0.487,-0.507l0.492,-0.508l0.496,-0.511l0.5,-0.512l0.506,-0.513l0.51,-0.516l0.515,-0.517l0.519,-0.519l0.524,-0.521l0.529,-0.523l0.533,-0.524l0.539,-0.526l0.543,-0.528l0.548,-0.529l0.553,-0.531l0.558,-0.533l0.562,-0.534l0.568,-0.537l0.572,-0.537l0.578,-0.54l0.582,-0.541l0.588,-0.543l0.592,-0.544l0.598,-0.547l0.602,-0.547l0.608,-0.55l0.613,-0.551l0.618,-0.553l0.623,-0.554l0.629,-0.556l0.634,-0.557l0.638,-0.559l0.644,-0.561l0.65,-0.562l0.655,-0.564l0.66,-0.566l0.665,-0.566l0.671,-0.569l0.676,-0.57l0.681,-0.572l0.688,-0.573l0.692,-0.574l0.698,-0.577l0.704,-0.577l0.709,-0.579l0.714,-0.581l0.721,-0.583l0.725,-0.583l0.732,-0.585l0.737,-0.587l0.743,-0.588l0.748,-0.59l0.754,-0.591l0.76,-0.593l0.766,-0.594l0.772,-0.595l0.777,-0.597l0.783,-0.598l0.789,-0.6l0.795,-0.601l0.801,-0.603l0.807,-0.604l0.812,-0.605l0.819,-0.607l0.824,-0.608l0.831,-0.61l0.837,-0.611l0.843,-0.612l0.849,-0.614l0.855,-0.615l0.861,-0.617l0.867,-0.617l0.874,-0.619l0.88,-0.621l0.886,-0.622l0.892,-0.622l0.898,-0.625l0.905,-0.626l0.911,-0.627l0.905,-0.619l0.595,-0.386l0.614,-0.355l0.631,-0.324l0.647,-0.291l0.66,-0.258l0.673,-0.224l0.684,-0.19l0.692,-0.155l0.699,-0.12l0.704,-0.085l0.708,-0.048l0.709,-0.013l0.709,0.024Zm-99.879,105.722l0.017,0.393l0.004,0.057l-0.023,-0.604l0.002,0.154Z" style="fill:#000;"/><path d="M123.822,118.637l0.664,0.057l0.66,0.088l0.656,0.12l0.649,0.151l0.641,0.181l0.632,0.211l0.621,0.242l0.609,0.271l0.595,0.299l0.58,0.327l0.565,0.355l0.546,0.381l0.528,0.407l0.508,0.431l0.487,0.455l0.464,0.478l0.442,0.499l0.417,0.52l0.392,0.538l0.366,0.557l0.339,0.574l0.311,0.589l0.283,0.604l0.253,0.616l0.225,0.627l0.194,0.638l0.163,0.646l0.133,0.653l0.101,0.658l0.07,0.663l0.039,0.665l0.006,0.666l-0.025,0.666l-0.056,0.664l-0.089,0.661l-0.119,0.655l-0.151,0.649l-0.181,0.641l-0.212,0.632l-0.241,0.621l-0.271,0.609l-0.299,0.595l-0.328,0.581l-0.354,0.564l-0.382,0.547l-0.406,0.527l-0.431,0.508l-0.455,0.487l-0.478,0.465l-0.499,0.441l-0.52,0.417l-0.539,0.392l-0.557,0.366l-0.573,0.339l-0.59,0.311l-0.603,0.283l-0.616,0.254l-0.628,0.224l-0.236,0.078l-0.261,0.087l-0.674,0.227l-0.831,0.281l-0.975,0.332l-2.346,0.801l-2.787,0.952l-3.15,1.074l-1.688,0.575l-1.749,0.594l-1.8,0.61l-1.842,0.624l-1.875,0.632l-1.897,0.638l-1.911,0.64l-1.913,0.638l-0.958,0.319l-0.953,0.316l-0.95,0.314l-0.945,0.311l-0.939,0.309l-0.931,0.305l-0.924,0.302l-0.914,0.297l-0.904,0.293l-0.892,0.287l-0.879,0.282l-0.866,0.277l-0.851,0.27l-0.835,0.263l-0.819,0.257l-0.801,0.249l-0.783,0.242l-0.763,0.233l-0.744,0.225l-0.724,0.217l-0.703,0.207l-0.682,0.199l-0.653,0.186l-0.331,0.094l-0.317,0.089l-0.314,0.086l-0.308,0.084l-0.304,0.082l-0.301,0.079l-0.297,0.078l-0.294,0.075l-0.291,0.073l-0.271,0.066l-1.125,0.272l-1.097,0.264l-1.089,0.261l-1.082,0.256l-1.071,0.251l-0.541,0.126l-0.536,0.124l-0.535,0.122l-0.535,0.122l-0.533,0.12l-0.534,0.118l-0.534,0.118l-0.533,0.116l-0.533,0.115l-0.534,0.114l-0.534,0.112l-0.535,0.11l-0.535,0.109l-0.535,0.107l-0.536,0.106l-0.538,0.104l-0.539,0.102l-0.539,0.1l-0.542,0.099l-0.542,0.096l-0.544,0.095l-0.545,0.092l-0.548,0.091l-0.548,0.088l-0.55,0.086l-0.553,0.084l-0.555,0.082l-0.556,0.079l-0.559,0.077l-0.561,0.074l-0.563,0.072l-0.565,0.069l-0.568,0.067l-0.571,0.064l-0.573,0.061l-0.575,0.058l-0.579,0.056l-0.581,0.053l-0.584,0.05l-0.587,0.046l-0.589,0.044l-0.593,0.041l-0.596,0.038l-0.599,0.034l-0.602,0.032l-0.606,0.028l-0.609,0.025l-0.612,0.022l-0.616,0.018l-0.609,0.015l-0.321,0.007l-0.312,0.005l-0.312,0.005l-0.314,0.004l-0.315,0.003l-0.316,0.002l-0.317,0.001l-0.298,0.001l-0.667,-0.015l-0.664,-0.047l-0.662,-0.078l-0.657,-0.11l-0.652,-0.14l-0.643,-0.172l-0.635,-0.202l-0.625,-0.232l-0.613,-0.262l-0.6,-0.29l-0.585,-0.318l-0.569,-0.346l-0.553,-0.373l-0.534,-0.399l-0.514,-0.423l-0.494,-0.448l-0.472,-0.47l-0.448,-0.493l-0.425,-0.513l-0.4,-0.533l-0.375,-0.551l-0.347,-0.569l-0.32,-0.584l-0.292,-0.599l-0.263,-0.612l-0.234,-0.624l-0.204,-0.635l-0.173,-0.643l-0.143,-0.651l-0.111,-0.657l-0.08,-0.662l-0.048,-0.664l-0.017,-0.666l0.015,-0.667l0.046,-0.664l0.079,-0.662l0.109,-0.657l0.141,-0.652l0.172,-0.643l0.202,-0.635l0.232,-0.625l0.261,-0.613l0.291,-0.6l0.318,-0.585l0.346,-0.569l0.373,-0.553l0.398,-0.534l0.424,-0.514l0.448,-0.494l0.47,-0.471l0.493,-0.449l0.513,-0.425l0.533,-0.4l0.551,-0.375l0.569,-0.347l0.584,-0.32l0.599,-0.292l0.612,-0.263l0.624,-0.234l0.635,-0.204l0.643,-0.173l0.651,-0.143l0.657,-0.111l0.661,-0.08l0.665,-0.048l0.666,-0.017l0.261,0l0.241,-0.001l0.239,-0.002l0.238,-0.002l0.237,-0.003l0.237,-0.004l0.236,-0.004l0.223,-0.005l0.476,-0.011l0.461,-0.014l0.458,-0.016l0.454,-0.019l0.45,-0.021l0.448,-0.023l0.445,-0.026l0.442,-0.028l0.439,-0.03l0.437,-0.033l0.435,-0.035l0.433,-0.037l0.432,-0.039l0.429,-0.041l0.429,-0.044l0.428,-0.045l0.426,-0.048l0.426,-0.05l0.425,-0.052l0.425,-0.054l0.425,-0.056l0.425,-0.059l0.426,-0.06l0.425,-0.063l0.426,-0.065l0.428,-0.067l0.428,-0.069l0.429,-0.071l0.431,-0.073l0.433,-0.075l0.433,-0.077l0.436,-0.08l0.439,-0.081l0.44,-0.083l0.442,-0.086l0.445,-0.088l0.449,-0.089l0.45,-0.092l0.454,-0.094l0.457,-0.096l0.459,-0.097l0.464,-0.1l0.467,-0.102l0.471,-0.104l0.474,-0.105l0.479,-0.108l0.482,-0.11l0.487,-0.111l0.491,-0.113l0.491,-0.114l1.01,-0.237l1.024,-0.243l1.043,-0.25l1.065,-0.256l1.067,-0.258l0.156,-0.038l0.153,-0.038l0.168,-0.043l0.182,-0.048l0.195,-0.051l0.208,-0.056l0.22,-0.06l0.23,-0.064l0.242,-0.067l0.243,-0.069l0.541,-0.154l0.569,-0.166l0.602,-0.178l0.635,-0.19l0.664,-0.201l0.691,-0.211l0.718,-0.221l0.742,-0.231l0.764,-0.24l0.786,-0.248l0.805,-0.255l0.824,-0.263l0.84,-0.27l0.857,-0.276l0.87,-0.282l0.883,-0.287l0.894,-0.292l0.905,-0.296l0.913,-0.3l0.921,-0.304l0.928,-0.307l0.933,-0.309l0.934,-0.311l1.881,-0.627l1.88,-0.63l1.87,-0.629l1.85,-0.624l1.82,-0.616l1.782,-0.604l1.733,-0.589l1.673,-0.569l3.137,-1.07l2.787,-0.952l2.361,-0.806l1.004,-0.341l0.875,-0.297l0.737,-0.248l0.329,-0.109l0.271,-0.09l0.637,-0.194l0.646,-0.164l0.653,-0.132l0.659,-0.102l0.662,-0.07l0.666,-0.038l0.666,-0.007l0.666,0.025Z" style="fill:#000;"/></g><path d="M430.696,66.717l20.616,161.24l22.036,-131.683l40.07,126.504" style="fill:none;stroke:#000;stroke-width:27px;"/><path d="M493.974,13.5l12.401,75.872" style="fill:none;stroke:#000;stroke-width:27px;"/><g><path d="M646.187,158.917c-17.686,5.795 -32.629,4.813 -41.573,3.498" style="fill:none;stroke:#000;stroke-width:27px;"/><path d="M544.62,114.057c21.623,-1.075 65.735,79.077 68.831,88.009c4.749,13.702 -37.985,-159.264 -43.215,-159.331c5.979,9.59 55.929,57.783 90.634,51.525" style="fill:none;stroke:#000;stroke-width:27px;"/></g><path d="M725.237,57.877c0,0 -35.628,153.871 43.475,184.75c79.537,31.049 132.331,-8.901 169.116,-34.044c37.238,-25.452 60.188,-80.442 27.608,-121.596c-25.892,-32.706 -67.405,-60.657 -125.48,-48.389c-56.615,11.96 -95.547,46.778 -95.547,46.778" style="fill:none;stroke:#000;stroke-width:27px;"/></g></svg>